# xmcd
#
# Track frame offsets:
#	150
#	18761
#	32632
#	51843
#	74528
#	92236
#	109374
#	128726
#	145993
#	162351
#	182741
#	201835
#	217224
#	235772
#	254161
#
# Disc length: 3659 seconds
#
# Revision: 1
# Processed by: cddbd v1.5.2PL0 Copyright (c) Steve Scherf et al.
# Submitted via: audiograbber 1.83.01
#
DISCID=e50e490f
DTITLE=Various Artist - CB30124
DYEAR=2010
DGENRE=Karaoke
TTITLE0=Joss Stone - Free me
TTITLE1=Three Days Grace - Good Life, The
TTITLE2=Mary J. Blige and T.I. - Good Love
TTITLE3=Usher - There Goes My Baby
TTITLE4=Pink - Glitter In The Air
TTITLE5=Pearl Jam - Just Breath
TTITLE6=Mariah Carey and Ne Yo - Angels Cry
TTITLE7=Nick Jonas and The Administration - Who I Am
TTITLE8=Monica - Everything To Me
TTITLE9=Chris Brown - Sing Like Me
TTITLE10=Amerie and Trey Songz - Pretty Brown
TTITLE11=Weezer - I'm Your Daddy
TTITLE12=Colbie Caillat - I Never Told You
TTITLE13=Kid Rock, Sheryl Crow and Keith Urban - Lean On Me
TTITLE14=Justin Timberlake, Matt Morris and Charlie Sexton - Hallelujah
EXTD=
EXTT0=
EXTT1=
EXTT2=
EXTT3=
EXTT4=
EXTT5=
EXTT6=
EXTT7=
EXTT8=
EXTT9=
EXTT10=
EXTT11=
EXTT12=
EXTT13=
EXTT14=
PLAYORDER=
